<mxfile>
    <diagram id="RRO2lzkZ8sydZhQlUV1x" name="Page-1">
        <mxGraphModel dx="1220" dy="985" grid="1" gridSize="10" guides="1" tooltips="1" connect="1" arrows="1" fold="1" page="1" pageScale="1" pageWidth="827" pageHeight="1169" math="0" shadow="0">
            <root>
                <mxCell id="0"/>
                <mxCell id="1" parent="0"/>
                <mxCell id="27" style="edgeStyle=orthogonalEdgeStyle;rounded=0;orthogonalLoop=1;jettySize=auto;html=1;" parent="1" source="2" target="26" edge="1">
                    <mxGeometry relative="1" as="geometry"/>
                </mxCell>
                <mxCell id="2" value="Actor" style="shape=umlActor;verticalLabelPosition=bottom;verticalAlign=top;html=1;outlineConnect=0;" parent="1" vertex="1">
                    <mxGeometry x="60" y="40" width="30" height="60" as="geometry"/>
                </mxCell>
                <mxCell id="4" value="&lt;font style=&quot;font-size: 19px&quot; color=&quot;#cccc00&quot;&gt;&lt;b&gt;app.js&lt;/b&gt;&lt;/font&gt;" style="text;html=1;strokeColor=none;fillColor=none;align=center;verticalAlign=middle;whiteSpace=wrap;rounded=0;" parent="1" vertex="1">
                    <mxGeometry x="20" y="180" width="60" height="70" as="geometry"/>
                </mxCell>
                <mxCell id="5" value="Da Inicio al Servidor" style="text;html=1;strokeColor=none;fillColor=none;align=center;verticalAlign=middle;whiteSpace=wrap;rounded=0;" parent="1" vertex="1">
                    <mxGeometry x="10" y="170" width="80" height="40" as="geometry"/>
                </mxCell>
                <mxCell id="6" value="Principal" style="html=1;strokeColor=none;fillColor=#0079D6;labelPosition=center;verticalLabelPosition=middle;verticalAlign=top;align=center;fontSize=12;outlineConnect=0;spacingTop=-6;fontColor=#FFFFFF;shape=mxgraph.sitemap.page;" parent="1" vertex="1">
                    <mxGeometry x="520" y="80" width="120" height="70" as="geometry"/>
                </mxCell>
                <mxCell id="7" value="Nueva Persona" style="html=1;strokeColor=none;fillColor=#0079D6;labelPosition=center;verticalLabelPosition=middle;verticalAlign=top;align=center;fontSize=12;outlineConnect=0;spacingTop=-6;fontColor=#FFFFFF;shape=mxgraph.sitemap.form;" parent="1" vertex="1">
                    <mxGeometry x="520" y="400" width="120" height="70" as="geometry"/>
                </mxCell>
                <mxCell id="8" value="Lista de Personas" style="html=1;strokeColor=none;fillColor=#0079D6;labelPosition=center;verticalLabelPosition=middle;verticalAlign=top;align=center;fontSize=12;outlineConnect=0;spacingTop=-6;fontColor=#FFFFFF;shape=mxgraph.sitemap.about_us;" parent="1" vertex="1">
                    <mxGeometry x="520" y="310" width="120" height="70" as="geometry"/>
                </mxCell>
                <mxCell id="9" value="Lista de Litigantes" style="html=1;strokeColor=none;fillColor=#0079D6;labelPosition=center;verticalLabelPosition=middle;verticalAlign=top;align=center;fontSize=12;outlineConnect=0;spacingTop=-6;fontColor=#FFFFFF;shape=mxgraph.sitemap.about_us;" parent="1" vertex="1">
                    <mxGeometry x="510" y="540" width="120" height="70" as="geometry"/>
                </mxCell>
                <mxCell id="23" value="" style="fontColor=#0066CC;verticalAlign=top;verticalLabelPosition=bottom;labelPosition=center;align=center;html=1;outlineConnect=0;fillColor=#CCCCCC;strokeColor=#6881B3;gradientColor=none;gradientDirection=north;strokeWidth=2;shape=mxgraph.networks.web_server;" parent="1" vertex="1">
                    <mxGeometry x="250" y="245" width="140" height="130" as="geometry"/>
                </mxCell>
                <mxCell id="25" value="&lt;div style=&quot;color: rgb(212 , 212 , 212) ; background-color: rgb(30 , 30 , 30) ; font-family: &amp;#34;droid sans mono&amp;#34; , monospace , monospace , &amp;#34;droid sans fallback&amp;#34; ; font-size: 14px ; line-height: 19px&quot;&gt;&lt;span style=&quot;color: #4fc1ff&quot;&gt;app&lt;/span&gt;.&lt;span style=&quot;color: #dcdcaa&quot;&gt;use&lt;/span&gt;(&lt;span style=&quot;color: #ce9178&quot;&gt;'/personaslist'&lt;/span&gt;, &lt;span style=&quot;color: #4fc1ff&quot;&gt;personasRoutes&lt;/span&gt;);&lt;/div&gt;" style="text;html=1;strokeColor=none;fillColor=none;align=center;verticalAlign=middle;whiteSpace=wrap;rounded=0;" parent="1" vertex="1">
                    <mxGeometry x="201" y="210" width="212.5" height="20" as="geometry"/>
                </mxCell>
                <mxCell id="28" style="edgeStyle=orthogonalEdgeStyle;rounded=0;orthogonalLoop=1;jettySize=auto;html=1;entryX=0;entryY=0.5;entryDx=0;entryDy=0;entryPerimeter=0;" parent="1" source="26" target="23" edge="1">
                    <mxGeometry relative="1" as="geometry"/>
                </mxCell>
                <mxCell id="26" value="" style="points=[];aspect=fixed;html=1;align=center;shadow=0;dashed=0;image;image=img/lib/allied_telesis/computer_and_terminals/Server_Desktop.svg;" parent="1" vertex="1">
                    <mxGeometry x="20" y="240" width="110.44" height="140" as="geometry"/>
                </mxCell>
                <mxCell id="31" style="edgeStyle=orthogonalEdgeStyle;rounded=0;orthogonalLoop=1;jettySize=auto;html=1;exitX=0.88;exitY=0.5;exitDx=0;exitDy=0;exitPerimeter=0;" parent="1" source="23" edge="1">
                    <mxGeometry relative="1" as="geometry">
                        <mxPoint x="390" y="375" as="sourcePoint"/>
                        <mxPoint x="520" y="350" as="targetPoint"/>
                        <Array as="points">
                            <mxPoint x="455" y="310"/>
                            <mxPoint x="455" y="350"/>
                        </Array>
                    </mxGeometry>
                </mxCell>
                <mxCell id="32" style="edgeStyle=orthogonalEdgeStyle;rounded=0;orthogonalLoop=1;jettySize=auto;html=1;" parent="1" edge="1">
                    <mxGeometry relative="1" as="geometry">
                        <mxPoint x="373" y="310" as="sourcePoint"/>
                        <mxPoint x="520" y="440" as="targetPoint"/>
                        <Array as="points">
                            <mxPoint x="373" y="310"/>
                            <mxPoint x="455" y="310"/>
                            <mxPoint x="455" y="440"/>
                        </Array>
                    </mxGeometry>
                </mxCell>
                <mxCell id="33" value="&lt;div style=&quot;color: rgb(212 , 212 , 212) ; background-color: rgb(30 , 30 , 30) ; font-family: &amp;#34;droid sans mono&amp;#34; , monospace , monospace , &amp;#34;droid sans fallback&amp;#34; ; font-size: 14px ; line-height: 19px&quot;&gt;&lt;span style=&quot;color: #4fc1ff&quot;&gt;router&lt;/span&gt;.&lt;span style=&quot;color: #dcdcaa&quot;&gt;get&lt;/span&gt;(&lt;span style=&quot;color: #ce9178&quot;&gt;'/list_personas'&lt;/span&gt;, &lt;span style=&quot;color: #4fc1ff&quot;&gt;personasController&lt;/span&gt;.&lt;span style=&quot;color: #9cdcfe&quot;&gt;listar&lt;/span&gt;);&lt;/div&gt;" style="text;html=1;strokeColor=none;fillColor=none;align=center;verticalAlign=middle;whiteSpace=wrap;rounded=0;" parent="1" vertex="1">
                    <mxGeometry x="650" y="335" width="230" height="20" as="geometry"/>
                </mxCell>
                <mxCell id="34" value="&lt;div style=&quot;color: rgb(212 , 212 , 212) ; background-color: rgb(30 , 30 , 30) ; font-family: &amp;#34;droid sans mono&amp;#34; , monospace , monospace , &amp;#34;droid sans fallback&amp;#34; ; font-size: 14px ; line-height: 19px&quot;&gt;&lt;span style=&quot;color: #4fc1ff&quot;&gt;router&lt;/span&gt;.&lt;span style=&quot;color: #dcdcaa&quot;&gt;get&lt;/span&gt;(&lt;span style=&quot;color: #ce9178&quot;&gt;'/list_personas'&lt;/span&gt;, &lt;span style=&quot;color: #4fc1ff&quot;&gt;personasController&lt;/span&gt;.&lt;span style=&quot;color: #9cdcfe&quot;&gt;listar&lt;/span&gt;);&lt;/div&gt;" style="text;html=1;strokeColor=none;fillColor=none;align=center;verticalAlign=middle;whiteSpace=wrap;rounded=0;" parent="1" vertex="1">
                    <mxGeometry x="640" y="550" width="230" height="20" as="geometry"/>
                </mxCell>
                <mxCell id="37" style="edgeStyle=orthogonalEdgeStyle;rounded=0;orthogonalLoop=1;jettySize=auto;html=1;exitX=0.88;exitY=0.5;exitDx=0;exitDy=0;exitPerimeter=0;" parent="1" source="35" target="9" edge="1">
                    <mxGeometry relative="1" as="geometry"/>
                </mxCell>
                <mxCell id="35" value="" style="fontColor=#0066CC;verticalAlign=top;verticalLabelPosition=bottom;labelPosition=center;align=center;html=1;outlineConnect=0;fillColor=#CCCCCC;strokeColor=#6881B3;gradientColor=none;gradientDirection=north;strokeWidth=2;shape=mxgraph.networks.web_server;" parent="1" vertex="1">
                    <mxGeometry x="250" y="510" width="140" height="130" as="geometry"/>
                </mxCell>
                <mxCell id="36" value="&lt;div style=&quot;color: rgb(212 , 212 , 212) ; background-color: rgb(30 , 30 , 30) ; font-family: &amp;#34;droid sans mono&amp;#34; , monospace , monospace , &amp;#34;droid sans fallback&amp;#34; ; font-size: 14px ; line-height: 19px&quot;&gt;&lt;span style=&quot;color: #4fc1ff&quot;&gt;app&lt;/span&gt;.&lt;span style=&quot;color: #dcdcaa&quot;&gt;use&lt;/span&gt;(&lt;span style=&quot;color: #ce9178&quot;&gt;'/litiganteslist'&lt;/span&gt;, &lt;span style=&quot;color: #4fc1ff&quot;&gt;litigantesRoutes&lt;/span&gt;);&lt;/div&gt;" style="text;html=1;strokeColor=none;fillColor=none;align=center;verticalAlign=middle;whiteSpace=wrap;rounded=0;" parent="1" vertex="1">
                    <mxGeometry x="237.5" y="470" width="142.5" height="20" as="geometry"/>
                </mxCell>
                <mxCell id="41" style="edgeStyle=orthogonalEdgeStyle;rounded=0;orthogonalLoop=1;jettySize=auto;html=1;exitX=0.88;exitY=0.5;exitDx=0;exitDy=0;exitPerimeter=0;entryX=0;entryY=0.5;entryDx=0;entryDy=0;entryPerimeter=0;" parent="1" source="39" target="6" edge="1">
                    <mxGeometry relative="1" as="geometry"/>
                </mxCell>
                <mxCell id="39" value="" style="fontColor=#0066CC;verticalAlign=top;verticalLabelPosition=bottom;labelPosition=center;align=center;html=1;outlineConnect=0;fillColor=#CCCCCC;strokeColor=#6881B3;gradientColor=none;gradientDirection=north;strokeWidth=2;shape=mxgraph.networks.web_server;" parent="1" vertex="1">
                    <mxGeometry x="250" y="50" width="140" height="130" as="geometry"/>
                </mxCell>
                <mxCell id="40" value="&lt;div style=&quot;color: rgb(212 , 212 , 212) ; background-color: rgb(30 , 30 , 30) ; font-family: &amp;#34;droid sans mono&amp;#34; , monospace , monospace , &amp;#34;droid sans fallback&amp;#34; ; font-size: 14px ; line-height: 19px&quot;&gt;&lt;span style=&quot;color: #4fc1ff&quot;&gt;app&lt;/span&gt;.&lt;span style=&quot;color: #dcdcaa&quot;&gt;use&lt;/span&gt;(&lt;span style=&quot;color: #ce9178&quot;&gt;'/'&lt;/span&gt;, &lt;span style=&quot;color: #4fc1ff&quot;&gt;generalRoutes&lt;/span&gt;);&lt;/div&gt;" style="text;html=1;strokeColor=none;fillColor=none;align=center;verticalAlign=middle;whiteSpace=wrap;rounded=0;" parent="1" vertex="1">
                    <mxGeometry x="237.5" y="15" width="142.5" height="20" as="geometry"/>
                </mxCell>
            </root>
        </mxGraphModel>
    </diagram>
</mxfile>